<svg xmlns="http://www.w3.org/2000/svg" viewBox="0 0 1080 1080" preserveAspectRatio="xMidYMid slice">
  <defs>
    <radialGradient id="nightSky" cx="0.5" cy="0.5" r="0.8">
      <stop offset="0%" stop-color="#2a3658"/>
      <stop offset="60%" stop-color="#151d36"/>
      <stop offset="100%" stop-color="#0a0f20"/>
    </radialGradient>
  </defs>
  <rect width="1080" height="1080" fill="url(#nightSky)"/>
  <!-- Large shining stars -->
  <g fill="#f5e8c8">
    <circle cx="180" cy="140" r="2.4" opacity="0.85"/>
    <circle cx="320" cy="260" r="1.6" opacity="0.6"/>
    <circle cx="520" cy="100" r="3.2" opacity="0.95"/>
    <circle cx="780" cy="180" r="2.0" opacity="0.75"/>
    <circle cx="920" cy="300" r="2.8" opacity="0.9"/>
    <circle cx="120" cy="420" r="1.8" opacity="0.7"/>
    <circle cx="460" cy="480" r="2.2" opacity="0.8"/>
    <circle cx="640" cy="380" r="1.4" opacity="0.55"/>
    <circle cx="860" cy="540" r="2.6" opacity="0.85"/>
    <circle cx="240" cy="620" r="1.9" opacity="0.7"/>
    <circle cx="580" cy="700" r="2.4" opacity="0.8"/>
    <circle cx="820" cy="760" r="1.5" opacity="0.6"/>
    <circle cx="140" cy="820" r="2.0" opacity="0.75"/>
    <circle cx="720" cy="920" r="2.8" opacity="0.9"/>
    <circle cx="440" cy="960" r="1.7" opacity="0.65"/>
  </g>
  <!-- Small scatter stars -->
  <g fill="#f5e8c8" opacity="0.4">
    <circle cx="60" cy="80" r="0.9"/>
    <circle cx="200" cy="60" r="0.8"/>
    <circle cx="400" cy="200" r="0.7"/>
    <circle cx="660" cy="240" r="0.9"/>
    <circle cx="880" cy="120" r="0.8"/>
    <circle cx="1020" cy="200" r="0.7"/>
    <circle cx="60" cy="300" r="0.9"/>
    <circle cx="260" cy="360" r="0.8"/>
    <circle cx="420" cy="320" r="0.7"/>
    <circle cx="720" cy="440" r="0.9"/>
    <circle cx="980" cy="420" r="0.8"/>
    <circle cx="160" cy="500" r="0.7"/>
    <circle cx="360" cy="560" r="0.9"/>
    <circle cx="540" cy="540" r="0.8"/>
    <circle cx="760" cy="620" r="0.7"/>
    <circle cx="940" cy="680" r="0.9"/>
    <circle cx="80" cy="720" r="0.8"/>
    <circle cx="320" cy="760" r="0.7"/>
    <circle cx="500" cy="820" r="0.9"/>
    <circle cx="680" cy="860" r="0.8"/>
    <circle cx="880" cy="920" r="0.7"/>
    <circle cx="1040" cy="820" r="0.9"/>
    <circle cx="220" cy="940" r="0.8"/>
    <circle cx="60" cy="1000" r="0.7"/>
  </g>
  <!-- Crescent moon -->
  <g transform="translate(860, 220)">
    <circle r="42" fill="#f5e8c8" opacity="0.88"/>
    <circle cx="14" r="42" fill="#151d36"/>
  </g>
</svg>
