<svg xmlns="http://www.w3.org/2000/svg" viewBox="156 117 198 188">
  <path fill="#c4a265" fill-rule="evenodd" d="M279.393555,285.285767 C277.453857,293.694611 271.707520,297.069427 264.244354,298.932953 C254.162323,301.450348 244.177795,303.489777 233.685455,301.484436 C223.545792,299.546478 216.418610,294.119690 212.142334,284.775208 C202.368378,263.417206 192.539062,242.084488 182.770782,220.723877 C174.942871,203.606323 167.989029,186.027252 159.153976,169.448822 C149.611023,151.542038 163.187256,134.970062 179.436172,134.219666 C194.237411,133.536118 209.093689,134.073288 223.925323,133.997681 C227.371368,133.980118 228.873459,136.035843 230.111542,138.818420 C240.472244,162.104233 250.887054,185.365982 261.286072,208.634750 C267.529724,222.605484 273.774323,236.575806 280.563965,251.766693 C282.824677,247.058685 284.664764,243.445984 286.318024,239.749725 C302.844482,202.800598 319.325378,165.831100 335.856262,128.883942 C339.468811,120.809723 341.065399,120.153839 350.937775,122.679573 C327.100220,176.845078 303.316650,230.887985 279.393555,285.285767 M230.054306,166.308044 C227.430695,160.372009 224.780594,154.447433 222.199646,148.492905 C221.427246,146.710876 220.559021,145.236786 218.307526,145.245132 C211.694717,145.269669 205.081772,145.253876 198.656326,145.253876 C197.896927,147.236343 198.888321,148.342819 199.421249,149.494781 C214.304962,181.666321 229.319992,213.777679 244.055038,246.017029 C247.430756,253.402878 252.053391,260.337738 253.650925,268.431610 C255.578033,278.195343 246.284409,287.668976 237.050110,285.599182 C234.880615,285.112885 231.484024,284.875214 231.944305,282.006866 C232.414566,279.076172 233.074341,275.143768 237.417160,274.745148 C240.151901,274.494171 242.598160,273.853241 242.536438,270.590393 C242.476624,267.428009 240.540237,265.353790 237.504257,264.505249 C231.215454,262.747437 224.602386,267.085846 223.307785,273.745270 C221.728256,281.870453 227.342087,289.415466 236.411392,290.545959 C245.257645,291.648682 254.019196,290.897858 262.411957,287.454163 C264.855896,286.451385 266.631378,284.989136 267.650360,282.480835 C269.278381,278.473206 271.037903,274.516632 272.832458,270.579773 C274.025146,267.963257 273.853729,265.538818 272.690033,262.910339 C258.543701,230.957352 244.463882,198.974915 230.054306,166.308044 M189.005814,203.062469 C193.759903,198.021851 199.692169,194.861420 206.917435,192.793015 C203.964523,186.450348 201.337173,180.756058 198.654678,175.087860 C198.115723,173.949066 197.070145,173.522156 195.795105,173.437561 C188.684952,172.965897 180.278625,181.157104 181.442764,188.278458 C182.333344,193.726471 184.317490,199.080795 189.005814,203.062469 M200.071793,230.983475 C200.736603,232.065536 201.369064,233.956741 202.908051,232.284286 C207.567352,227.220993 213.712967,224.784851 220.461685,222.362335 C217.801071,216.591064 215.312561,211.188721 212.819382,205.788528 C212.292648,204.647659 211.504807,203.991440 210.135162,203.960464 C202.276855,203.782761 190.253693,213.702209 196.148254,222.738007 C197.675964,225.079865 198.575806,227.831314 200.071793,230.983475 M220.504913,234.145111 C204.042755,239.818848 206.399139,249.306763 215.830887,262.913391 C220.176605,256.732819 226.682510,254.029556 234.299988,252.345062 C231.497635,246.205231 229.078491,240.969818 226.718689,235.707809 C225.514328,233.022247 223.431152,233.402008 220.504913,234.145111 M167.339813,155.910004 C167.201553,162.606247 171.395767,167.558823 174.085052,174.274384 C179.169586,167.701904 185.591110,164.787292 192.866562,162.567123 C190.986328,158.294449 189.090179,154.772873 187.864929,151.031586 C185.564514,144.007233 181.438141,144.135788 175.236664,146.605698 C171.359802,148.149796 168.616669,150.990952 167.339813,155.910004 z"/>
</svg>
